# xmcd CD database file generated by Grip 2.96
# 
# Track frame offsets:
#       150
#       23063
#       57308
#       73463
#       91008
#       107568
#       126778
#       146825
#       163448
#       188810
#       210528
#       242003
#       257015
#       261918
#       277578
# 
# Disc length: 3798 seconds
# 
# Revision: 0
# Processed by: cddbd v1.4PL0 Copyright (c) Steve Scherf et al.
# Submitted via: Grip 2.96
# 
DISCID=db0ed40f
DTITLE=The Otters - Nature of the Beat
DYEAR=1900
DGENRE=
TTITLE0=Horizontal Lambada
TTITLE1=Mazel/Bad Dog
TTITLE2=Gimme Back My Wig
TTITLE3=Come On In My Kitchen
TTITLE4=Train Wreck
TTITLE5=Sing With The Angels
TTITLE6=The Little that I Know
TTITLE7=Fury
TTITLE8=Amazing Grace
TTITLE9=Introducing Mr. Johnsons
TTITLE10=Wild Bill Jones
TTITLE11=Big Jig
TTITLE12=Jam
TTITLE13=Like a Flower
TTITLE14=The Parting Glass
EXTD=
EXTT0=
EXTT1=
EXTT2=
EXTT3=
EXTT4=
EXTT5=
EXTT6=
EXTT7=
EXTT8=
EXTT9=
EXTT10=
EXTT11=
EXTT12=
EXTT13=
EXTT14=
PLAYORDER=
